HIERARCHY
ROOT hips
{
	OFFSET 0.000000 104.274902 0.000000
	CHANNELS 6 Xposition Yposition Zposition Xrotation Yrotation Zrotation
	JOINT spine
	{
		OFFSET 0.000000 10.181549 0.131524
		CHANNELS 6 Xposition Yposition Zposition Xrotation Yrotation Zrotation
		JOINT chest
		{
			OFFSET 0.000000 9.893990 -1.470706
			CHANNELS 3 Xrotation Yrotation Zrotation
			JOINT upperChest
			{
				OFFSET 0.000000 9.220787 -1.370637
				CHANNELS 3 Xrotation Yrotation Zrotation
				JOINT neck
				{
					OFFSET 0.000000 16.740372 -2.049022
					CHANNELS 6 Xposition Yposition Zposition Xrotation Yrotation Zrotation
					JOINT head
					{
						OFFSET 0.000000 9.617859 1.684976
						CHANNELS 6 Xposition Yposition Zposition Xrotation Yrotation Zrotation
						JOINT headEnd
						{
							OFFSET 0.000000 22.037384 7.501072
							CHANNELS 6 Xposition Yposition Zposition Xrotation Yrotation Zrotation
							End Site
							{
								OFFSET 0.000000 23.106567 -2.828246
							}
						}
					}
				}
				JOINT rightShoulder
				{
					OFFSET -4.570000 11.014877 -2.160840
					CHANNELS 6 Xposition Yposition Zposition Xrotation Yrotation Zrotation
					JOINT rightUpperArm
					{
						OFFSET -10.592867 -0.524796 -2.232105
						CHANNELS 3 Xrotation Yrotation Zrotation
						JOINT rightLowerArm
						{
							OFFSET -27.841497 0.000000 -0.000002
							CHANNELS 3 Xrotation Yrotation Zrotation
							JOINT rightHand
							{
								OFFSET -28.328812 0.000000 -0.000001
								CHANNELS 3 Xrotation Yrotation Zrotation
								JOINT rightThumbProximal
								{
									OFFSET -2.464798 -1.573990 2.681911
									CHANNELS 6 Xposition Yposition Zposition Xrotation Yrotation Zrotation
									JOINT rightThumbIntermediate
									{
										OFFSET -3.244781 -1.873383 1.873376
										CHANNELS 3 Xrotation Yrotation Zrotation
										JOINT rightThumbDistal
										{
											OFFSET -2.646263 -1.527817 1.527818
											CHANNELS 6 Xposition Yposition Zposition Xrotation Yrotation Zrotation
											JOINT rightHandThumb4
											{
												OFFSET -1.994591 -1.151581 1.151575
												CHANNELS 6 Xposition Yposition Zposition Xrotation Yrotation Zrotation
												End Site
												{
													OFFSET -1.860176 -1.142715 1.365483
												}
											}
										}
									}
								}
								JOINT rightIndexProximal
								{
									OFFSET -9.108299 -0.517883 2.259803
									CHANNELS 6 Xposition Yposition Zposition Xrotation Yrotation Zrotation
									JOINT rightIndexIntermediate
									{
										OFFSET -3.699997 0.000000 0.000000
										CHANNELS 3 Xrotation Yrotation Zrotation
										JOINT rightIndexDistal
										{
											OFFSET -2.850006 0.000000 0.000000
											CHANNELS 3 Xrotation Yrotation Zrotation
											JOINT rightHandIndex4
											{
												OFFSET -2.772194 0.000000 0.000000
												CHANNELS 3 Xrotation Yrotation Zrotation
												End Site
												{
													OFFSET -2.772202 0.000000 -0.000484
												}
											}
										}
									}
								}
								JOINT rightMiddleProximal
								{
									OFFSET -9.532501 0.000000 -0.000000
									CHANNELS 6 Xposition Yposition Zposition Xrotation Yrotation Zrotation
									JOINT rightMiddleIntermediate
									{
										OFFSET -3.699997 0.000000 0.000000
										CHANNELS 3 Xrotation Yrotation Zrotation
										JOINT rightMiddleDistal
										{
											OFFSET -2.949997 0.000000 0.000000
											CHANNELS 3 Xrotation Yrotation Zrotation
											JOINT rightHandMiddle4
											{
												OFFSET -2.946594 0.000000 0.000000
												CHANNELS 3 Xrotation Yrotation Zrotation
												End Site
												{
													OFFSET -2.946602 0.000000 -0.000982
												}
											}
										}
									}
								}
								JOINT rightRingProximal
								{
									OFFSET -9.103600 -0.043106 -1.865100
									CHANNELS 6 Xposition Yposition Zposition Xrotation Yrotation Zrotation
									JOINT rightRingIntermediate
									{
										OFFSET -3.379303 0.000000 0.000000
										CHANNELS 3 Xrotation Yrotation Zrotation
										JOINT rightRingDistal
										{
											OFFSET -2.889694 0.000000 0.000000
											CHANNELS 3 Xrotation Yrotation Zrotation
											JOINT rightHandRing4
											{
												OFFSET -2.638802 0.000000 0.000000
												CHANNELS 3 Xrotation Yrotation Zrotation
												End Site
												{
													OFFSET -2.638802 0.000000 0.004218
												}
											}
										}
									}
								}
								JOINT rightLittleProximal
								{
									OFFSET -8.076698 -0.486725 -3.806299
									CHANNELS 6 Xposition Yposition Zposition Xrotation Yrotation Zrotation
									JOINT rightLittleIntermediate
									{
										OFFSET -3.600006 0.000000 0.000000
										CHANNELS 3 Xrotation Yrotation Zrotation
										JOINT rightLittleDistal
										{
											OFFSET -2.099998 0.000000 0.000000
											CHANNELS 3 Xrotation Yrotation Zrotation
											JOINT rightHandPinky4
											{
												OFFSET -2.115791 0.000000 0.000000
												CHANNELS 3 Xrotation Yrotation Zrotation
												End Site
												{
													OFFSET -2.115799 0.000000 0.000174
												}
											}
										}
									}
								}
							}
						}
					}
				}
				JOINT leftShoulder
				{
					OFFSET 4.570400 11.014679 -2.160816
					CHANNELS 6 Xposition Yposition Zposition Xrotation Yrotation Zrotation
					JOINT leftUpperArm
					{
						OFFSET 10.592373 -0.524597 -2.232116
						CHANNELS 3 Xrotation Yrotation Zrotation
						JOINT leftLowerArm
						{
							OFFSET 27.841488 0.000000 0.000001
							CHANNELS 3 Xrotation Yrotation Zrotation
							JOINT leftHand
							{
								OFFSET 28.328808 0.000000 -0.000000
								CHANNELS 3 Xrotation Yrotation Zrotation
								JOINT leftThumbProximal
								{
									OFFSET 2.466103 -1.576202 2.681698
									CHANNELS 6 Xposition Yposition Zposition Xrotation Yrotation Zrotation
									JOINT leftThumbIntermediate
									{
										OFFSET 3.243317 -1.872528 1.872530
										CHANNELS 3 Xrotation Yrotation Zrotation
										JOINT leftThumbDistal
										{
											OFFSET 2.647881 -1.528763 1.528754
											CHANNELS 6 Xposition Yposition Zposition Xrotation Yrotation Zrotation
											JOINT leftHandThumb4
											{
												OFFSET 1.998924 -1.154083 1.154080
												CHANNELS 6 Xposition Yposition Zposition Xrotation Yrotation Zrotation
												End Site
												{
													OFFSET 1.884041 -1.149155 1.337651
												}
											}
										}
									}
								}
								JOINT leftIndexProximal
								{
									OFFSET 9.109299 -0.518005 2.259900
									CHANNELS 6 Xposition Yposition Zposition Xrotation Yrotation Zrotation
									JOINT leftIndexIntermediate
									{
										OFFSET 3.699997 0.000000 0.000000
										CHANNELS 3 Xrotation Yrotation Zrotation
										JOINT leftIndexDistal
										{
											OFFSET 2.850006 0.000000 0.000000
											CHANNELS 3 Xrotation Yrotation Zrotation
											JOINT leftHandIndex4
											{
												OFFSET 2.774895 0.000000 0.000000
												CHANNELS 3 Xrotation Yrotation Zrotation
												End Site
												{
													OFFSET 2.774902 0.000000 -0.000072
												}
											}
										}
									}
								}
								JOINT leftMiddleProximal
								{
									OFFSET 9.533401 0.000000 0.000000
									CHANNELS 6 Xposition Yposition Zposition Xrotation Yrotation Zrotation
									JOINT leftMiddleIntermediate
									{
										OFFSET 3.699997 0.000000 0.000000
										CHANNELS 3 Xrotation Yrotation Zrotation
										JOINT leftMiddleDistal
										{
											OFFSET 2.949997 0.000000 0.000000
											CHANNELS 3 Xrotation Yrotation Zrotation
											JOINT leftHandMiddle4
											{
												OFFSET 2.952896 0.000000 0.000000
												CHANNELS 3 Xrotation Yrotation Zrotation
												End Site
												{
													OFFSET 2.952904 0.000000 0.000165
												}
											}
										}
									}
								}
								JOINT leftRingProximal
								{
									OFFSET 9.104500 -0.042999 -1.865101
									CHANNELS 6 Xposition Yposition Zposition Xrotation Yrotation Zrotation
									JOINT leftRingIntermediate
									{
										OFFSET 3.149994 0.000000 0.000000
										CHANNELS 3 Xrotation Yrotation Zrotation
										JOINT leftRingDistal
										{
											OFFSET 2.950005 0.000000 0.000000
											CHANNELS 3 Xrotation Yrotation Zrotation
											JOINT leftHandRing4
											{
												OFFSET 2.644302 0.000000 0.000000
												CHANNELS 3 Xrotation Yrotation Zrotation
												End Site
												{
													OFFSET 2.644302 0.000000 0.000083
												}
											}
										}
									}
								}
								JOINT leftLittleProximal
								{
									OFFSET 8.077805 -0.486893 -3.806302
									CHANNELS 6 Xposition Yposition Zposition Xrotation Yrotation Zrotation
									JOINT leftLittleIntermediate
									{
										OFFSET 3.600006 0.000000 0.000000
										CHANNELS 3 Xrotation Yrotation Zrotation
										JOINT leftLittleDistal
										{
											OFFSET 2.099998 0.000000 0.000000
											CHANNELS 3 Xrotation Yrotation Zrotation
											JOINT leftHandPinky4
											{
												OFFSET 2.125496 0.000000 0.000000
												CHANNELS 3 Xrotation Yrotation Zrotation
												End Site
												{
													OFFSET 2.125504 0.000000 -0.001254
												}
											}
										}
									}
								}
							}
						}
					}
				}
			}
		}
	}
	JOINT rightUpperLeg
	{
		OFFSET -8.207800 -6.751701 -1.599544
		CHANNELS 6 Xposition Yposition Zposition Xrotation Yrotation Zrotation
		JOINT rightLowerLeg
		{
			OFFSET 0.000004 -44.370152 0.345934
			CHANNELS 3 Xrotation Yrotation Zrotation
			JOINT rightFoot
			{
				OFFSET 0.000004 -44.423664 -3.043535
				CHANNELS 3 Xrotation Yrotation Zrotation
				JOINT rightToes
				{
					OFFSET 0.000001 -8.728691 10.710592
					CHANNELS 3 Xrotation Yrotation Zrotation
					JOINT rightToesEnd
					{
						OFFSET 0.000000 -0.000665 9.278101
						CHANNELS 3 Xrotation Yrotation Zrotation
						End Site
						{
							OFFSET 0.000000 -0.000665 9.278103
						}
					}
				}
			}
		}
	}
	JOINT leftUpperLeg
	{
		OFFSET 8.207800 -6.751701 -1.599544
		CHANNELS 6 Xposition Yposition Zposition Xrotation Yrotation Zrotation
		JOINT leftLowerLeg
		{
			OFFSET 0.000004 -44.370037 0.346940
			CHANNELS 3 Xrotation Yrotation Zrotation
			JOINT leftFoot
			{
				OFFSET 0.000004 -44.423611 -3.044388
				CHANNELS 3 Xrotation Yrotation Zrotation
				JOINT leftToes
				{
					OFFSET 0.000001 -8.728690 10.710592
					CHANNELS 3 Xrotation Yrotation Zrotation
					JOINT leftToesEnd
					{
						OFFSET 0.000000 -0.000680 9.278101
						CHANNELS 3 Xrotation Yrotation Zrotation
						End Site
						{
							OFFSET 0.000000 -0.000680 9.278101
						}
					}
				}
			}
		}
	}
}
MOTION
Frames: 4
Frame Time: 0.033333
-4.140768 93.370415 178.030655 1.875737 -19.686137 -9.817500 -0.000002 10.181558 0.131508 6.098652 5.895203 2.806843 2.956429 0.924770 4.123652 2.913459 0.968174 4.148436 0.000001 16.740370 -2.049027 -9.753394 6.436399 -0.080603 -0.000003 9.617814 1.684941 -9.624076 30.998120 0.404323 0.000003 22.037369 7.501081 -0.000000 -0.000000 -0.000000 -4.570002 11.014871 -2.160854 1.101459 7.077169 -4.026610 175.830038 127.467709 -169.189796 0.000004 10.878402 -0.000008 44.224300 0.976215 21.851194 -2.464808 -1.573978 2.681902 -1.849241 -3.581793 -6.586137 4.637173 -8.634129 -0.225390 -2.646249 -1.527814 1.527823 -1.273759 0.137307 -2.094875 -1.994604 -1.151595 1.151584 0.000001 0.000000 -0.000001 -9.108296 -0.517877 2.259789 2.376423 -5.237831 48.784285 0.840523 -3.318948 28.415289 0.394955 -2.314260 19.367044 0.000004 -0.000002 0.000003 -9.532514 0.000022 -0.000011 2.759457 -5.548599 52.857844 1.077840 -3.723556 32.277626 0.564068 -2.747978 23.194627 -0.000001 0.000000 -0.000001 -9.103580 -0.043128 -1.865111 3.268413 -5.897871 57.958199 1.411333 -4.204242 37.099081 0.816646 -3.274553 28.000301 0.000002 -0.000000 -0.000000 -8.076694 -0.486716 -3.806313 3.697543 -6.144210 62.047481 1.705350 -4.566009 40.943344 1.051508 -3.681650 31.869963 -0.000004 0.000001 0.000001 4.570400 11.014684 -2.160828 0.148297 -0.032226 5.025968 -6.347884 -38.496787 -32.597621 0.000008 -3.533029 0.000011 -4.820212 -1.791144 14.127067 2.466095 -1.576208 2.681706 -1.539952 3.690264 6.142347 3.939050 7.948715 0.746808 2.647848 -1.528755 1.528761 -0.579463 1.575008 2.538719 1.998917 -1.154053 1.154073 -0.000003 0.000004 -0.000000 9.109292 -0.518005 2.259914 0.016136 0.472159 -3.915404 0.103043 1.189263 -9.905319 0.088029 1.099807 -9.153351 -0.000001 -0.000001 -0.000001 9.533401 0.000026 0.000017 0.050600 0.835023 -6.936603 0.147109 1.418659 -11.841802 0.160166 1.479536 -12.358100 -0.000003 0.000002 0.000002 9.104513 -0.042978 -1.865090 0.121344 1.289643 -10.751028 0.211951 1.698649 -14.225199 0.279975 1.947271 -16.363233 0.000003 -0.000001 -0.000001 8.077794 -0.486884 -3.806291 1.152262 5.589426 -13.343680 0.271387 -2.135759 -16.626847 0.399511 2.315618 -19.576902 0.000001 -0.000002 -0.000001 -8.207804 -6.751690 -1.599561 -17.459774 -1.991249 20.086437 42.429972 -2.772422 2.566972 -26.501308 2.806341 -10.480839 -2.942002 0.000002 0.000003 -0.000000 -0.000002 -0.000000 8.207794 -6.751690 -1.599579 -13.454285 -1.982902 18.067210 92.047160 -8.596265 -2.567527 11.459274 -0.444328 1.888577 -3.353256 0.000001 -0.000006 0.000000 -0.000000 0.000001 
-4.098244 92.076729 178.729202 -0.963253 -22.556662 -12.538719 0.000003 10.181565 0.131539 7.461933 9.216403 6.744050 3.192990 1.359409 2.554381 3.158233 1.368892 2.591245 -0.000004 16.740376 -2.048994 -9.566321 6.638634 0.350092 0.000002 9.617868 1.684965 -9.204504 32.663976 0.506393 0.000005 22.037369 7.501070 0.000000 -0.000002 -0.000000 -4.570005 11.014892 -2.160824 1.180001 10.785842 1.261351 180.357074 123.966431 -171.049725 -0.000003 14.368046 0.000018 44.964057 11.128780 28.922945 -2.464812 -1.573998 2.681908 -1.849243 -3.581789 -6.586137 4.637177 -8.634131 -0.225388 -2.646258 -1.527803 1.527815 -1.273757 0.137306 -2.094874 -1.994597 -1.151582 1.151575 0.000001 -0.000003 -0.000000 -9.108309 -0.517869 2.259802 3.079390 -5.775873 56.099486 1.063285 -3.700446 32.052753 0.554643 -2.725954 22.997889 -0.000002 0.000001 -0.000000 -9.532508 0.000006 -0.000000 3.145120 -5.819287 56.750345 1.206758 -3.919788 34.211728 0.660334 -2.962369 25.127496 0.000001 0.000000 0.000000 -9.103604 -0.043112 -1.865097 3.228320 -5.872694 57.567102 1.396680 -4.184857 36.898871 0.805855 -3.254208 27.810879 0.000001 -0.000001 0.000001 -8.076716 -0.486726 -3.806293 3.295671 -5.914737 58.223005 1.556808 -4.389464 39.040627 0.932836 -3.483942 29.971434 0.000000 -0.000001 -0.000000 4.570394 11.014674 -2.160810 0.109096 0.950672 2.364340 -3.581344 -25.471474 -35.511550 -0.000002 -7.924113 0.000007 -19.475842 -3.027615 14.733225 2.466104 -1.576204 2.681731 -1.539954 3.690257 6.142346 3.939046 7.948709 0.746803 2.647884 -1.528738 1.528739 -0.579460 1.575010 2.538720 1.998929 -1.154093 1.154063 -0.000003 0.000004 0.000001 9.109293 -0.518020 2.259920 0.011162 0.392841 -3.257062 0.096327 1.150119 -9.576030 0.081821 1.060592 -8.824090 -0.000003 -0.000000 0.000002 9.533401 0.000006 0.000017 0.041425 0.755790 -6.275651 0.139031 1.379508 -11.510556 0.151756 1.440634 -12.028056 -0.000000 0.000001 -0.000002 9.104492 -0.042998 -1.865079 0.106839 1.210801 -10.086518 0.202195 1.659692 -13.892207 0.268807 1.908839 -16.031335 -0.000002 -0.000002 0.000000 8.077827 -0.486900 -3.806278 1.087238 5.521957 -12.672047 0.259970 -2.174346 -16.293744 0.386128 2.277662 -19.242844 -0.000001 0.000001 -0.000000 -8.207799 -6.751693 -1.599539 -15.687087 -1.440810 21.191415 45.525922 -0.320750 3.772649 -28.458372 3.460749 -11.719794 -2.612372 0.000003 0.000003 0.000000 0.000000 0.000000 8.207799 -6.751693 -1.599535 -17.557203 -3.552508 18.944710 98.388964 -9.677070 0.518053 5.234039 -0.586268 3.147124 -3.567678 0.000004 -0.000001 -0.000000 -0.000000 0.000001 
-3.950735 91.199829 179.951996 -4.131963 -24.359820 -14.956482 -0.000002 10.181563 0.131521 9.176888 11.809112 10.494713 3.265852 1.673718 0.988978 3.266634 1.641969 1.029776 -0.000003 16.740398 -2.049002 -9.114776 7.061879 0.162319 -0.000001 9.617865 1.684971 -9.206181 34.444801 0.780045 0.000013 22.037384 7.501064 -0.000000 -0.000002 0.000001 -4.570003 11.014873 -2.160830 1.173435 15.623084 4.008509 193.085841 121.089842 -179.127681 -0.000007 17.349715 0.000006 44.365846 21.300374 35.901879 -2.464810 -1.573967 2.681911 -1.849239 -3.581791 -6.586138 4.637176 -8.634129 -0.225388 -2.646267 -1.527801 1.527828 -1.273753 0.137307 -2.094877 -1.994583 -1.151587 1.151578 -0.000004 0.000002 0.000003 -9.108313 -0.517866 2.259810 3.830952 -6.212776 63.286805 1.304987 -4.060172 35.623463 0.736417 -3.119179 26.561527 -0.000002 0.000003 -0.000000 -9.532511 0.000022 -0.000002 3.670945 -6.130125 61.798582 1.383685 -4.167551 36.720415 0.795709 -3.234885 27.631392 0.000004 0.000003 -0.000000 -9.103601 -0.043094 -1.865094 3.474458 -6.021239 59.942444 1.483832 -4.298192 38.077232 0.874211 -3.380396 28.991930 0.000001 0.000002 -0.000002 -8.076692 -0.486707 -3.806293 3.320038 -5.929694 58.459166 1.565801 -4.400511 39.158137 0.939992 -3.496255 30.088694 0.000000 -0.000001 0.000003 4.570398 11.014673 -2.160821 0.076449 2.403489 0.080402 1.545457 -14.657299 -36.204009 0.000001 -12.270974 -0.000004 -31.022279 -2.992331 15.581584 2.466097 -1.576234 2.681699 -1.539951 3.690263 6.142349 3.939049 7.948712 0.746808 2.647908 -1.528745 1.528775 -0.579463 1.575016 2.538712 1.998922 -1.154092 1.154095 -0.000001 0.000003 -0.000002 9.109303 -0.518007 2.259899 0.011044 0.390672 -3.239018 0.096147 1.149055 -9.567028 0.081653 1.059498 -8.815077 0.000001 0.000001 -0.000001 9.533400 -0.000011 -0.000006 0.035118 0.695999 -5.777339 0.133079 1.350002 -11.260847 0.145566 1.411269 -11.779227 0.000000 -0.000001 0.000003 9.104502 -0.042990 -1.865102 0.084878 1.080068 -8.987624 0.186558 1.595152 -13.341484 0.250826 1.845170 -15.482504 -0.000001 0.000001 -0.000003 8.077810 -0.486928 -3.806308 0.936549 5.359298 -11.082733 0.233837 -2.265966 -15.505286 0.355350 2.187469 -18.452130 -0.000000 -0.000002 0.000001 -8.207802 -6.751703 -1.599541 -12.892504 -0.609499 21.398195 47.353811 1.902726 4.926282 -30.076745 4.117268 -12.703507 -2.739903 0.000003 0.000002 0.000000 0.000000 0.000000 8.207791 -6.751688 -1.599537 -21.429428 -5.223358 18.766162 100.995965 -6.936040 2.198712 -1.888626 -0.526042 3.668597 -3.708050 -0.000004 0.000011 0.000004 0.000001 0.000001 
-3.814989 90.902855 181.629379 -7.053991 -25.279946 -16.689376 0.000000 10.181550 0.131543 10.702034 14.244165 13.475530 3.173168 1.956566 -0.214968 3.219117 1.884336 -0.174624 -0.000004 16.740332 -2.049036 -8.227386 7.554144 -0.485326 0.000001 9.617831 1.684961 -9.124206 36.003269 0.555999 -0.000011 22.037399 7.501078 0.000000 -0.000000 0.000001 -4.570003 11.014844 -2.160852 1.119475 19.342986 5.756273 202.071324 119.765386 -184.496551 0.000006 21.424246 0.000006 44.784604 28.639658 37.407758 -2.464802 -1.574000 2.681916 -1.849243 -3.581789 -6.586134 4.637176 -8.634131 -0.225390 -2.646275 -1.527816 1.527830 -1.273752 0.137299 -2.094873 -1.994594 -1.151595 1.151569 0.000004 -0.000002 0.000001 -9.108301 -0.517863 2.259794 4.210378 -6.388518 66.743311 1.429027 -4.227489 37.339842 0.832382 -3.303881 28.274319 0.000002 -0.000000 0.000000 -9.532491 0.000013 -0.000005 4.119129 -6.348766 65.920731 1.536140 -4.363941 38.769796 0.914827 -3.452531 29.673484 -0.000001 0.000001 0.000001 -9.103606 -0.043110 -1.865096 4.006314 -6.297449 64.896305 1.673577 -4.529209 40.542340 1.024502 -3.637961 31.447236 -0.000003 0.000002 -0.000000 -8.076686 -0.486715 -3.806296 3.916912 -6.255051 64.078642 1.786600 -4.657702 41.953631 1.117142 -3.784939 32.877993 -0.000000 0.000000 0.000003 4.570397 11.014658 -2.160831 0.069377 3.902369 -1.559509 5.747030 -5.874544 -36.609630 -0.000011 -14.669996 -0.000000 -39.408487 -2.939115 16.594049 2.466089 -1.576218 2.681715 -1.539958 3.690259 6.142346 3.939049 7.948713 0.746805 2.647893 -1.528772 1.528753 -0.579462 1.575015 2.538716 1.998928 -1.154084 1.154061 -0.000001 0.000001 0.000001 9.109286 -0.518014 2.259910 0.012182 0.410503 -3.403595 0.097794 1.158849 -9.649334 0.083178 1.069320 -8.897380 -0.000001 -0.000001 0.000002 9.533391 -0.000007 0.000013 0.031365 0.657944 -5.460356 0.129362 1.331202 -11.101978 0.141700 1.392570 -11.620928 0.000002 -0.000001 0.000001 9.104486 -0.043020 -1.865090 0.068423 0.970423 -8.068529 0.173950 1.541062 -12.880886 0.236253 1.791767 -15.023426 -0.000001 -0.000001 0.000000 8.077797 -0.486912 -3.806284 0.806742 5.211612 -9.673766 0.211731 -2.347552 -14.805856 0.329063 2.107144 -17.750844 0.000000 -0.000002 0.000003 -8.207797 -6.751711 -1.599517 -9.460906 0.818994 21.012869 47.526925 3.247848 5.771901 -31.269972 4.373562 -13.098868 -3.325912 0.000001 0.000001 0.000000 -0.000002 -0.000000 8.207795 -6.751698 -1.599530 -25.295754 -6.601488 17.632769 99.700224 -3.580981 2.750105 -7.654275 -0.237764 2.799286 -3.921467 -0.000011 0.000002 -0.000000 0.000000 0.000000 
